HIERARCHY
ROOT Hips
{
	OFFSET 0.000000 0.000000 0.000000
	CHANNELS 6 Xposition Yposition Zposition Zrotation Yrotation Xrotation 
	JOINT LowerBack
	{
		OFFSET 0.000000 0.000000 0.000000
		CHANNELS 3 Zrotation Yrotation Xrotation
		JOINT Spine
		{
			OFFSET 0.028270 2.035590 -0.193380
			CHANNELS 3 Zrotation Yrotation Xrotation
			JOINT Spine1
			{
				OFFSET 0.056720 2.048850 -0.042750
				CHANNELS 3 Zrotation Yrotation Xrotation
				JOINT Neck
				{
					OFFSET 0.000000 0.000000 0.000000
					CHANNELS 3 Zrotation Yrotation Xrotation
					JOINT Neck1
					{
						OFFSET -0.054170 1.746240 0.172020
						CHANNELS 3 Zrotation Yrotation Xrotation
						JOINT Head
						{
							OFFSET 0.104070 1.761360 -0.123970
							CHANNELS 3 Zrotation Yrotation Xrotation
							End Site
							{
								OFFSET 0.000000 0.000000 0.000000
							}
						}
					}
				}
				JOINT LeftShoulder
				{
					OFFSET 0.000000 0.000000 0.000000
					CHANNELS 3 Zrotation Yrotation Xrotation
					JOINT LeftArm
					{
						OFFSET 3.362410 1.200890 -0.311210
						CHANNELS 3 Zrotation Yrotation Xrotation
						JOINT LeftForeArm
						{
							OFFSET 4.983000 -0.000000 -0.000000
							CHANNELS 3 Zrotation Yrotation Xrotation
							JOINT LeftHand
							{
								OFFSET 3.483560 -0.000000 -0.000000
								CHANNELS 3 Zrotation Yrotation Xrotation
								JOINT LeftFingerBase
								{
									OFFSET 0.000000 0.000000 0.000000
									CHANNELS 3 Zrotation Yrotation Xrotation
									JOINT LeftHandIndex1
									{
										OFFSET 0.715260 -0.000000 -0.000000
										CHANNELS 3 Zrotation Yrotation Xrotation
										End Site
										{
											OFFSET 0.000000 0.000000 0.000000
										}
									}
								}
								JOINT LThumb
								{
									OFFSET 0.000000 0.000000 0.000000
									CHANNELS 3 Zrotation Yrotation Xrotation
									End Site
									{
										OFFSET 0.000000 0.000000 0.000000
									}
								}
							}
						}
					}
				}
				JOINT RightShoulder
				{
					OFFSET 0.000000 0.000000 0.000000
					CHANNELS 3 Zrotation Yrotation Xrotation
					JOINT RightArm
					{
						OFFSET -3.136600 1.374050 -0.404650
						CHANNELS 3 Zrotation Yrotation Xrotation
						JOINT RightForeArm
						{
							OFFSET -5.241900 -0.000000 -0.000000
							CHANNELS 3 Zrotation Yrotation Xrotation
							JOINT RightHand
							{
								OFFSET -3.444170 -0.000000 -0.000000
								CHANNELS 3 Zrotation Yrotation Xrotation
								JOINT RightFingerBase
								{
									OFFSET 0.000000 0.000000 0.000000
									CHANNELS 3 Zrotation Yrotation Xrotation
									JOINT RightHandIndex1
									{
										OFFSET -0.622530 -0.000000 -0.000000
										CHANNELS 3 Zrotation Yrotation Xrotation
										End Site
										{
											OFFSET 0.000000 0.000000 0.000000
										}
									}
								}
								JOINT RThumb
								{
									OFFSET 0.000000 0.000000 0.000000
									CHANNELS 3 Zrotation Yrotation Xrotation
									End Site
									{
										OFFSET 0.000000 0.000000 0.000000
									}
								}
							}
						}
					}
				}
			}
		}
	}
}
}
MOTION
Frames: 9
Frame Time: 0.008333
17.508971 16.497385 0.998808 46.643993 -88.673709 -10.999640 2.385785 -2.049318 -8.690245 -0.136937 -2.674455 -4.995419 -5.871791 -2.916239 -0.800341 11.750937 -8.853755 -12.684573 -2.984330 -0.150948 -1.736444 0.000000 0.000000 0.000000 1.934598 2.756749 3.731427 -84.311844 -2.000603 -1.780430 -1.140844 -29.231240 -0.057760 22.945992 -4.336047 -0.918198 -0.096438 0.167420 -0.000000 0.000000 0.000000 0.000000 0.000000 0.000000 0.000000 14.778305 -4.346595 2.998295 81.602448 10.942424 8.924575 1.946875 32.777925 -0.018003 -10.995088 13.656636 -1.362914 0.132526 -0.275397 0.000000 0.000000 0.000000 0.000000 0.000000 0.000000 0.000000 
17.479816 16.380811 0.997604 51.262506 -88.379816 -14.598497 2.187468 -2.123919 -8.932232 -0.180498 -2.741811 -5.079085 -5.865693 -2.990676 -0.889558 11.826113 -8.808191 -12.783502 -2.990990 -0.149376 -1.786307 0.000000 0.000000 0.000000 1.898104 2.419978 3.817249 -84.285464 -2.063480 -1.281364 -1.127160 -29.037969 -0.058982 23.063589 -4.597542 -0.977402 -0.097047 0.171039 -0.000000 0.000000 0.000000 0.000000 0.000000 0.000000 0.000000 14.900050 -4.300933 3.082372 81.501329 10.879222 9.895509 1.934583 33.425945 -0.017532 -10.733785 13.872853 -1.351891 0.131256 -0.280925 0.000000 0.000000 0.000000 0.000000 0.000000 0.000000 0.000000 
17.450831 16.251632 0.996467 54.834327 -88.086843 -17.140136 1.991976 -2.194540 -9.197641 -0.224457 -2.805798 -5.168610 -5.860303 -3.061587 -0.980460 11.888423 -8.750630 -12.871888 -2.999142 -0.148079 -1.832797 0.000000 0.000000 0.000000 1.853913 2.084326 3.896433 -84.191966 -2.121426 -0.801860 -1.111427 -29.000996 -0.060423 23.232476 -4.902816 -1.048803 -0.097924 0.175105 -0.000000 0.000000 0.000000 0.000000 0.000000 0.000000 0.000000 15.006088 -4.246411 3.161172 81.383452 10.808265 10.718324 1.914136 34.128602 -0.017415 -10.561789 14.097905 -1.352169 0.130333 -0.286854 0.000000 0.000000 0.000000 0.000000 0.000000 0.000000 0.000000 
17.421506 16.109709 0.996028 57.323937 -87.801707 -18.589065 1.818436 -2.258494 -9.490138 -0.264011 -2.866304 -5.264356 -5.855798 -3.128932 -1.071298 11.935332 -8.682292 -12.951074 -3.009120 -0.147093 -1.876070 0.000000 0.000000 0.000000 1.794771 1.759176 3.968198 -84.038421 -2.180863 -0.367541 -1.091543 -29.122168 -0.062140 23.478357 -5.261520 -1.136104 -0.098955 0.179577 -0.000000 0.000000 0.000000 0.000000 0.000000 0.000000 0.000000 15.093465 -4.184418 3.233260 81.249776 10.726507 11.362578 1.885118 34.883952 -0.017698 -10.485162 14.324646 -1.364349 0.129788 -0.293131 0.000000 0.000000 0.000000 0.000000 0.000000 0.000000 0.000000 
17.391933 15.955336 0.996777 58.817606 -87.528659 -19.035265 1.680538 -2.314624 -9.810682 -0.295375 -2.923982 -5.364251 -5.851769 -3.193284 -1.153292 11.969900 -8.622638 -13.030603 -3.020343 -0.146250 -1.918767 0.000000 0.000000 0.000000 1.712586 1.478639 4.029968 -83.830649 -2.280491 0.021335 -1.067261 -29.369583 -0.064145 23.816990 -5.684642 -1.243805 -0.100067 0.184373 -0.000000 0.000000 0.000000 0.000000 0.000000 0.000000 0.000000 15.167626 -4.136802 3.296018 81.096896 10.660694 11.843233 1.849072 35.666450 -0.018398 -10.515196 14.546675 -1.389930 0.129827 -0.299565 0.000000 0.000000 0.000000 0.000000 0.000000 0.000000 0.000000 
17.361971 15.789150 0.999220 59.443857 -87.271183 -18.615298 1.588365 -2.361411 -10.158062 -0.316350 -2.978650 -5.468270 -5.849923 -3.254517 -1.227356 11.993144 -8.568523 -13.108891 -3.035077 -0.145797 -1.960303 0.000000 0.000000 0.000000 1.594742 1.239920 4.081830 -83.570818 -2.425318 0.347229 -1.037715 -29.730986 -0.066430 24.249985 -6.169524 -1.373007 -0.101045 0.189351 -0.000000 0.000000 0.000000 0.000000 0.000000 0.000000 0.000000 15.238282 -4.100612 3.350111 80.921083 10.615469 12.149294 1.806836 36.456523 -0.019522 -10.647622 14.756504 -1.428114 0.130416 -0.306044 0.000000 0.000000 0.000000 0.000000 0.000000 0.000000 0.000000 
17.331018 15.612192 1.003699 59.344881 -87.032351 -17.477024 1.548275 -2.397135 -10.529435 -0.326031 -3.029505 -5.577108 -5.853018 -3.311958 -1.298283 12.005741 -8.504051 -13.179234 -3.057080 -0.146183 -1.998703 0.000000 0.000000 0.000000 1.426360 1.027014 4.125480 -83.256387 -2.611032 0.596318 -1.002449 -30.194230 -0.068962 24.768288 -6.705437 -1.522811 -0.101643 0.194333 -0.000000 0.000000 0.000000 0.000000 0.000000 0.000000 0.000000 15.319017 -4.059225 3.397736 80.717014 10.586081 12.262587 1.758948 37.234064 -0.021081 -10.870688 14.946908 -1.477303 0.131405 -0.312487 0.000000 0.000000 0.000000 0.000000 0.000000 0.000000 0.000000 
17.299271 15.425853 1.010340 58.694270 -86.812917 -15.803747 1.559600 -2.420795 -10.918552 -0.325071 -3.075542 -5.689766 -5.863230 -3.364668 -1.367409 12.011911 -8.421430 -13.239016 -3.089334 -0.147715 -2.033320 0.000000 0.000000 0.000000 1.196992 0.836829 4.162007 -82.884122 -2.853373 0.777791 -0.962674 -30.723655 -0.071674 25.353182 -7.278158 -1.690817 -0.101685 0.199129 -0.000000 0.000000 0.000000 0.000000 0.000000 0.000000 0.000000 15.427467 -4.004669 3.440578 80.478317 10.584829 12.194308 1.706717 37.965818 -0.023069 -11.179925 15.113919 -1.536796 0.132761 -0.318760 0.000000 0.000000 0.000000 0.000000 0.000000 0.000000 0.000000 
17.266188 15.231954 1.019071 57.657631 -86.612722 -13.771707 1.617033 -2.431882 -11.316526 -0.315265 -3.115583 -5.804677 -5.882539 -3.411550 -1.436267 12.016489 -8.312596 -13.285178 -3.134370 -0.150658 -2.063467 0.000000 0.000000 0.000000 0.899741 0.663838 4.192728 -82.449298 -3.170552 0.911459 -0.920260 -31.278304 -0.074486 25.979093 -7.867241 -1.871826 -0.101059 0.203569 -0.000000 0.000000 0.000000 0.000000 0.000000 0.000000 0.000000 15.580811 -3.928831 3.480837 80.197921 10.626662 11.967579 1.651529 38.614846 -0.025482 -11.575918 15.256980 -1.606794 0.134500 -0.324723 0.000000 0.000000 0.000000 0.000000 0.000000 0.000000 0.000000 
